<svg xmlns="http://www.w3.org/2000/svg" viewBox="0 0 200 200">
  <!-- Background -->
  <defs>
    <linearGradient id="bgGradient" x1="0%" y1="0%" x2="100%" y2="100%">
      <stop offset="0%" style="stop-color:#87CEEB;stop-opacity:1" />
      <stop offset="100%" style="stop-color:#E0F6FF;stop-opacity:1" />
    </linearGradient>
  </defs>
  
  <rect width="200" height="200" fill="url(#bgGradient)"/>
  
  <!-- Clouds -->
  <ellipse cx="40" cy="35" rx="20" ry="15" fill="white" opacity="0.8"/>
  <ellipse cx="55" cy="40" rx="25" ry="12" fill="white" opacity="0.8"/>
  <ellipse cx="160" cy="45" rx="22" ry="14" fill="white" opacity="0.7"/>
  <ellipse cx="175" cy="50" rx="20" ry="13" fill="white" opacity="0.7"/>
  
  <!-- Sun -->
  <circle cx="180" cy="30" r="18" fill="#FFD700" opacity="0.9"/>
  
  <!-- Rolling hills -->
  <path d="M 0 110 Q 50 80 100 110 T 200 110 L 200 200 L 0 200 Z" fill="#90EE90" opacity="0.7"/>
  <path d="M 0 130 Q 60 100 120 130 T 200 130 L 200 200 L 0 200 Z" fill="#7FCC7F" opacity="0.8"/>
  
  <!-- Wheat/Grain plant (center) -->
  <g id="grain-plant">
    <!-- Stem -->
    <line x1="100" y1="160" x2="100" y2="90" stroke="#228B22" stroke-width="4"/>
    
    <!-- Left leaf -->
    <path d="M 100 120 Q 85 110 80 100" stroke="#32CD32" stroke-width="3" fill="none" stroke-linecap="round"/>
    
    <!-- Right leaf -->
    <path d="M 100 110 Q 115 105 120 95" stroke="#32CD32" stroke-width="3" fill="none" stroke-linecap="round"/>
    
    <!-- Wheat head -->
    <g id="wheat-head">
      <!-- Main grain head -->
      <ellipse cx="100" cy="75" rx="12" ry="20" fill="#FFD700" stroke="#F4A460" stroke-width="1"/>
      
      <!-- Individual grains -->
      <circle cx="92" cy="60" r="2.5" fill="#FFA500"/>
      <circle cx="96" cy="58" r="2.5" fill="#FFA500"/>
      <circle cx="100" cy="57" r="2.5" fill="#FFB347"/>
      <circle cx="104" cy="58" r="2.5" fill="#FFA500"/>
      <circle cx="108" cy="60" r="2.5" fill="#FFA500"/>
      
      <circle cx="90" cy="70" r="2.5" fill="#FFD700"/>
      <circle cx="94" cy="68" r="2.5" fill="#FFD700"/>
      <circle cx="100" cy="67" r="3" fill="#FFD700"/>
      <circle cx="106" cy="68" r="2.5" fill="#FFD700"/>
      <circle cx="110" cy="70" r="2.5" fill="#FFD700"/>
      
      <circle cx="92" cy="80" r="2.5" fill="#FFA500"/>
      <circle cx="96" cy="82" r="2.5" fill="#FFA500"/>
      <circle cx="100" cy="83" r="2.5" fill="#FFB347"/>
      <circle cx="104" cy="82" r="2.5" fill="#FFA500"/>
      <circle cx="108" cy="80" r="2.5" fill="#FFA500"/>
    </g>
  </g>
  
  <!-- White banner at bottom -->
  <rect x="0" y="165" width="200" height="35" fill="white" opacity="0.95"/>
  
  <!-- Text "Mahsoul" -->
  <text x="100" y="190" font-family="Arial, sans-serif" font-size="24" font-weight="bold" fill="#228B22" text-anchor="middle" letter-spacing="2">Mahsoul</text>
</svg>